<?xml version="1.0" encoding="UTF-8" standalone="no"?>
<!-- Created with Inkscape (http://www.inkscape.org/) -->

<svg
   xmlns:dc="http://purl.org/dc/elements/1.1/"
   xmlns:cc="http://creativecommons.org/ns#"
   xmlns:rdf="http://www.w3.org/1999/02/22-rdf-syntax-ns#"
   xmlns:svg="http://www.w3.org/2000/svg"
   xmlns="http://www.w3.org/2000/svg"
   xmlns:sodipodi="http://sodipodi.sourceforge.net/DTD/sodipodi-0.dtd"
   xmlns:inkscape="http://www.inkscape.org/namespaces/inkscape"
   width="100mm"
   height="100mm"
   viewBox="0 0 100 100"
   version="1.1"
   id="svg8"
   inkscape:version="0.92.4 (5da689c313, 2019-01-14)"
   sodipodi:docname="drawing.svg">
  <defs
     id="defs2" />
  <sodipodi:namedview
     id="base"
     pagecolor="#ffffff"
     bordercolor="#666666"
     borderopacity="1.0"
     inkscape:pageopacity="0.0"
     inkscape:pageshadow="2"
     inkscape:zoom="1.4"
     inkscape:cx="-109.91457"
     inkscape:cy="281.74399"
     inkscape:document-units="mm"
     inkscape:current-layer="g39"
     showgrid="false"
     inkscape:window-width="2560"
     inkscape:window-height="1390"
     inkscape:window-x="0"
     inkscape:window-y="0"
     inkscape:window-maximized="1"
     width="100mm" />
  <metadata
     id="metadata5">
    <rdf:RDF>
      <cc:Work
         rdf:about="">
        <dc:format>image/svg+xml</dc:format>
        <dc:type
           rdf:resource="http://purl.org/dc/dcmitype/StillImage" />
        <dc:title></dc:title>
      </cc:Work>
    </rdf:RDF>
  </metadata>
  <g
     inkscape:label="Layer 1"
     inkscape:groupmode="layer"
     id="layer1"
     transform="translate(0,-197)">
    <g
       id="g39"
       transform="translate(-2.8063303,-5.946747)">
      <path
         style="fill:#f0633d;stroke-width:0.4966557"
         d="m 24.799283,290.38385 v -10.43007 l 5.415814,-3.79418 5.415803,-3.79415 0.249245,-0.95308 0.249226,-0.95305 H 35.70225 35.27511 l -4.617087,-3.30274 -4.617102,-3.30273 -0.201877,-0.16875 -0.201875,-0.16875 0.878644,-1.94848 0.878646,-1.94849 1.558182,-1.4592 1.558178,-1.4592 3.281908,-2.30218 3.281907,-2.3022 6.525878,4.46318 6.525878,4.46316 h 0.870498 0.870516 l 7.940404,-5.5921 7.940403,-5.5921 0.150358,-0.7806 0.150358,-0.78061 -6.228486,-4.38477 -6.228466,-4.38477 v -0.35889 -0.35889 l 6.737129,-4.77662 6.73713,-4.77661 h 0.512924 0.512924 l 3.924691,2.76581 3.92471,2.76581 v 14.51141 14.51139 l -25.950264,18.14798 -25.95026,18.14798 -0.62082,0.36333 -0.620819,0.36334 z m 36.026733,-1.54765 -4.947348,-3.48847 -0.440036,-0.44004 -0.440035,-0.44005 6.629026,-4.68402 6.629045,-4.68405 0.656261,-0.38473 0.65628,-0.38472 4.20061,2.88276 4.20059,2.88275 -0.138719,5.9841 -0.138719,5.98411 -5.959869,0.13046 -5.959869,0.13046 z m -36.021829,-43.03747 0.0049,-11.34697 4.979884,-3.45359 4.979879,-3.4536 1.326282,-1.76129 1.326263,-1.76129 -0.819759,0.65835 -0.819758,0.65832 -4.569371,-3.28104 -4.56937,-3.28104 -0.690754,-0.38656 -0.690755,-0.38657 0.14131,-5.68219 0.14131,-5.68221 5.617389,-0.14078 5.617388,-0.14078 5.557357,3.81307 5.557376,3.81306 0.891277,0.77037 0.891259,0.77038 0.903497,0.13796 0.903516,0.13797 7.128529,-4.96752 7.128547,-4.96753 5.976369,0.13853 5.97635,0.13853 v 6.17621 6.17619 l -24.336125,17.03595 -24.33614,17.03597 -2.110786,2.28951 -2.110787,2.28949 0.0049,-11.34697 z"
         id="path45"
         inkscape:connector-curvature="0" />
      <path
         style="fill:#8c175a;stroke-width:0.4966557"
         d="m 24.799283,290.37914 v -10.43482 l 4.840569,-3.37489 4.840578,-3.37486 0.800612,-0.80061 0.800612,-0.80061 7.396019,-5.20604 7.396038,-5.20603 0.784375,-0.27943 0.784394,-0.27941 6.913767,-4.83348 6.913785,-4.83348 1.738292,-1.58751 1.738311,-1.58752 2.570872,-1.8374 2.570871,-1.83741 1.526534,-2.30464 1.526533,-2.30463 v 12.14747 12.14747 l -25.950264,18.14798 -25.95026,18.14797 -0.620819,0.36334 -0.620819,0.36334 z m 0.0056,-44.58041 0.0056,-11.34697 4.321947,-2.97993 4.321958,-2.97994 1.598991,-1.38796 1.59899,-1.38796 7.026864,-4.94439 7.026845,-4.9444 h 0.369362 0.369361 l 7.147845,-4.98098 7.147825,-4.98097 5.976369,0.13853 5.97635,0.13853 v 6.17621 6.17619 l -24.336125,17.03595 -24.336144,17.03597 -2.110786,2.28951 -2.110787,2.28949 z"
         id="path41"
         inkscape:connector-curvature="0" />
    </g>
  </g>
</svg>
